<svg xmlns="http://www.w3.org/2000/svg" viewBox="0 0 64 64" role="img" aria-label="QS">
  <rect width="64" height="64" rx="15" fill="#0A59F7"/>
  <g fill="#FFFFFF" transform="translate(11.785 42.772) scale(0.02892 -0.02892)">
    <path d="M813 -167H612L428 -10Q404 -12 391 -12Q293 -12 213.5 33.5Q134 79 88.0 165.0Q42 251 42 367Q42 482 88.0 568.0Q134 654 213.5 699.5Q293 745 391 745Q489 745 568.5 699.5Q648 654 694.5 568.0Q741 482 741 367Q741 255 697.0 170.5Q653 86 578 39ZM391 121Q449 121 493.5 151.5Q538 182 562.5 238.0Q587 294 587 367Q587 440 562.5 495.5Q538 551 493.5 581.5Q449 612 391 612Q333 612 288.5 581.5Q244 551 219.5 495.5Q195 440 195 367Q195 294 219.5 238.0Q244 182 288.5 151.5Q333 121 391 121Z" transform="translate(0 0)"/>
    <path d="M301 -12Q199 -12 117.0 35.5Q35 83 8 170L126 237Q150 181 196.0 150.0Q242 119 306 119Q358 119 388.5 140.0Q419 161 419 201Q419 233 398.5 254.0Q378 275 347.5 287.0Q317 299 264 315Q193 336 148.0 356.5Q103 377 71.0 418.0Q39 459 39 526Q39 597 76.5 646.5Q114 696 175.5 720.5Q237 745 308 745Q405 745 474.0 701.0Q543 657 563 582L445 515Q427 562 391.0 588.5Q355 615 301 615Q252 615 221.5 592.5Q191 570 191 533Q191 505 210.0 486.5Q229 468 258.5 456.5Q288 445 338 430Q410 409 457.0 387.5Q504 366 537.5 323.5Q571 281 571 212Q571 137 532.5 86.5Q494 36 432.5 12.0Q371 -12 301 -12Z" transform="translate(785 0)"/>
  </g>
</svg>
